<svg xmlns="http://www.w3.org/2000/svg" xmlns:xlink="http://www.w3.org/1999/xlink" viewBox="0,0,256,256" width="128px" height="128px"><defs><radialGradient cx="242.813" cy="287.333" r="206.704" gradientUnits="userSpaceOnUse" id="color-1"><stop offset="0" stop-color="#eb8307"></stop><stop offset="0" stop-color="#f2e0bb"></stop><stop offset="0.011" stop-color="#f2e0bc"></stop><stop offset="0.362" stop-color="#f9edd2"></stop><stop offset="0.699" stop-color="#fef4df"></stop><stop offset="1" stop-color="#fff7e4"></stop></radialGradient><linearGradient x1="31.5" y1="6" x2="31.5" y2="57.004" gradientUnits="userSpaceOnUse" id="color-2"><stop offset="0" stop-color="#a4a4a4"></stop><stop offset="0.63" stop-color="#7f7f7f"></stop><stop offset="1" stop-color="#6f6f6f"></stop><stop offset="1" stop-color="#6f6f6f"></stop></linearGradient><linearGradient x1="26.5" y1="12" x2="26.5" y2="41" gradientUnits="userSpaceOnUse" id="color-3"><stop offset="0" stop-color="#def9ff"></stop><stop offset="0.282" stop-color="#cff6ff"></stop><stop offset="0.823" stop-color="#a7efff"></stop><stop offset="1" stop-color="#99ecff"></stop></linearGradient><linearGradient x1="22.5" y1="35" x2="22.5" y2="12" gradientUnits="userSpaceOnUse" id="color-4"><stop offset="0" stop-color="#ddf9ff"></stop><stop offset="0.723" stop-color="#eafcff"></stop><stop offset="1" stop-color="#f1fdff"></stop></linearGradient></defs><g fill="#242424" fill-rule="nonzero" stroke="none" stroke-width="1" stroke-linecap="butt" stroke-linejoin="miter" stroke-miterlimit="10" stroke-dasharray="" stroke-dashoffset="0" font-family="none" font-weight="none" font-size="none" text-anchor="none" style="mix-blend-mode: normal"><path d="M0,256v-256h256v256z" id="bgRectangle"></path></g><g fill="none" fill-rule="nonzero" stroke="none" stroke-width="1" stroke-linecap="butt" stroke-linejoin="miter" stroke-miterlimit="10" stroke-dasharray="" stroke-dashoffset="0" font-family="none" font-weight="none" font-size="none" text-anchor="none" style="mix-blend-mode: normal"><g transform="translate(254,2) rotate(90) scale(4,4)"><path d="M6,4v0c0,-2.209 1.791,-4 4,-4v0c2.209,0 4,1.791 4,4v0c0,2.209 -1.791,4 -4,4v0c-2.209,0 -4,-1.791 -4,-4zM7.5,64v0c1.933,0 3.5,-1.567 3.5,-3.5v0c0,-1.933 -1.567,-3.5 -3.5,-3.5v0c-1.933,0 -3.5,1.567 -3.5,3.5v0c0,1.933 1.567,3.5 3.5,3.5zM57.5,25h-10c-1.933,0 -3.5,1.567 -3.5,3.5v0c0,1.933 1.567,3.5 3.5,3.5h1.5c2.209,0 4,1.791 4,4v0c0,2.209 -1.791,4 -4,4h-0.5c-1.381,0 -2.5,1.119 -2.5,2.5v0c0,1.381 1.119,2.5 2.5,2.5h5.5c2.209,0 4,1.791 4,4v0c0,2.209 -1.791,4 -4,4h-8c-1.105,0 -2,0.895 -2,2v0c0,1.105 0.895,2 2,2h0.5c1.933,0 3.5,1.567 3.5,3.5v0c0,1.933 -1.567,3.5 -3.5,3.5h-29c-1.933,0 -3.5,-1.567 -3.5,-3.5v0c0,-1.933 1.567,-3.5 3.5,-3.5v0c1.381,0 2.5,-1.119 2.5,-2.5v0c0,-1.381 -1.119,-2.5 -2.5,-2.5h-8.5c-2.209,0 -4,-1.791 -4,-4v0c0,-2.209 1.791,-4 4,-4h4.5c1.933,0 3.5,-1.567 3.5,-3.5v0c0,-1.933 -1.567,-3.5 -3.5,-3.5h-8.5c-2.761,0 -5,-2.239 -5,-5v0c0,-2.761 2.239,-5 5,-5h3c1.657,0 3,-1.343 3,-3v0c0,-1.657 -1.343,-3 -3,-3h-2.5c-1.933,0 -3.5,-1.567 -3.5,-3.5v0c0,-1.933 1.567,-3.5 3.5,-3.5h18.5c1.657,0 3,-1.343 3,-3v0c0,-1.657 -1.343,-3 -3,-3h-2c-2.209,0 -4,-1.791 -4,-4v0c0,-2.209 1.791,-4 4,-4h24c2.209,0 4,1.791 4,4v0c0,2.209 -1.791,4 -4,4h-2c-2.209,0 -4,1.791 -4,4v0c0,2.209 1.791,4 4,4h13.5c2.485,0 4.5,2.015 4.5,4.5v0c0,2.485 -2.015,4.5 -4.5,4.5zM63,36v0c0,-2.209 -1.791,-4 -4,-4v0c-2.209,0 -4,1.791 -4,4v0c0,2.209 1.791,4 4,4v0c2.209,0 4,-1.791 4,-4z" fill="url(#color-1)"></path><path d="M55.846,49.998l0.006,-0.006l-12.231,-12.231c2.131,-3.233 3.379,-7.099 3.379,-11.261c0,-11.322 -9.178,-20.5 -20.5,-20.5c-11.322,0 -20.5,9.178 -20.5,20.5c0,11.322 9.178,20.5 20.5,20.5c4.163,0 8.031,-1.249 11.265,-3.381l12.232,12.229c1.542,1.542 4.04,1.542 5.581,0l0.268,-0.268c1.539,-1.542 1.539,-4.04 0,-5.582z" fill="url(#color-2)"></path><path d="M26.5,12c-8.00813,0 -14.5,6.49187 -14.5,14.5c0,8.00813 6.49187,14.5 14.5,14.5c8.00813,0 14.5,-6.49187 14.5,-14.5c0,-8.00813 -6.49187,-14.5 -14.5,-14.5z" fill="url(#color-3)"></path><path d="M26.5,12c1.381,0 2.5,1.119 2.5,2.5c0,1.381 -1.119,2.5 -2.5,2.5h-3.5c-1.105,0 -2,0.895 -2,2c0,1.105 0.895,2 2,2h0.5c1.381,0 2.5,1.119 2.5,2.5c0,1.381 -1.119,2.5 -2.5,2.5h-4.5c-1.105,0 -2,0.895 -2,2c0,1.105 0.895,2 2,2h0.5c1.381,0 2.5,1.119 2.5,2.5c0,1.381 -1.119,2.5 -2.5,2.5h-4.73c-1.735,-2.39 -2.77,-5.321 -2.77,-8.5c0,-8.008 6.492,-14.5 14.5,-14.5zM30.5,21c-1.381,0 -2.5,1.119 -2.5,2.5c0,1.381 1.119,2.5 2.5,2.5c1.381,0 2.5,-1.119 2.5,-2.5c0,-1.381 -1.119,-2.5 -2.5,-2.5z" fill="url(#color-4)"></path></g></g></svg>